<svg width="35" height="34" fill="none" xmlns="http://www.w3.org/2000/svg"><path opacity=".5" d="M3.38 24.626A1 1 0 014.305 24h14.388a1 1 0 01.927.626l2.825 7A1 1 0 0121.517 33H1.482a1 1 0 01-.928-1.374l2.825-7z" fill="url(#paint0_linear)"/><path d="M11.5 8C7.36 8 4 11.324 4 15.418c0 4.418 4.912 10.58 6.786 12.77a.933.933 0 001.428 0C14.088 25.999 19 19.837 19 15.419 19 11.324 15.64 8 11.5 8zm0 10.676c-1.825 0-3.294-1.453-3.294-3.258s1.47-3.258 3.294-3.258c1.825 0 3.294 1.453 3.294 3.258s-1.491 3.258-3.294 3.258z" fill="url(#paint1_linear)"/><g filter="url(#filter0_d)"><circle cx="21.5" cy="9.5" r="7.5" fill="#2E61E5"/><circle cx="21.5" cy="9.5" r="7.5" fill="#2459E2"/></g><path d="M18.367 8.258v-.059c0-.426.313-.789.809-.789.453 0 .789.293.789.746 0 .403-.246.719-.594 1.086l-1.937 2.102V12h3.671v-.86h-2.234v-.03l1.203-1.352c.613-.656.938-1.078.938-1.7 0-.87-.715-1.492-1.79-1.492-1.136 0-1.855.743-1.855 1.641v.05h1zm5.38 3.082c-.579 0-1.017-.352-1.017-.875 0-.524.438-.883 1.016-.883.574 0 1.016.36 1.016.883s-.442.875-1.016.875zm0-2.477c-.485 0-.845-.316-.845-.77 0-.452.36-.757.844-.757.485 0 .844.305.844.758s-.36.77-.844.77zm-.013 3.239c1.25 0 2.075-.645 2.075-1.57 0-.84-.633-1.231-1.118-1.329v-.031c.442-.137.907-.5.907-1.195 0-.813-.739-1.41-1.852-1.41s-1.851.597-1.851 1.41c0 .687.449 1.054.902 1.195v.031c-.48.098-1.117.485-1.117 1.332 0 .926.808 1.567 2.054 1.567z" fill="#D5D5D5"/><defs><linearGradient id="paint0_linear" x1="11.5" y1="24" x2="11.5" y2="33" gradientUnits="userSpaceOnUse"><stop stop-color="#F66200"/><stop offset="1" stop-color="#FF971C"/></linearGradient><linearGradient id="paint1_linear" x1="11.5" y1="8" x2="11.5" y2="29" gradientUnits="userSpaceOnUse"><stop stop-color="#F66200"/><stop offset="1" stop-color="#FF971C"/></linearGradient><filter id="filter0_d" x="8" y="0" width="27" height="27" filterUnits="userSpaceOnUse" color-interpolation-filters="sRGB"><feFlood flood-opacity="0" result="BackgroundImageFix"/><feColorMatrix in="SourceAlpha" values="0 0 0 0 0 0 0 0 0 0 0 0 0 0 0 0 0 0 127 0"/><feOffset dy="4"/><feGaussianBlur stdDeviation="3"/><feColorMatrix values="0 0 0 0 0 0 0 0 0 0 0 0 0 0 0 0 0 0 0.25 0"/><feBlend in2="BackgroundImageFix" result="effect1_dropShadow"/><feBlend in="SourceGraphic" in2="effect1_dropShadow" result="shape"/></filter></defs></svg>