<svg width="27" height="26" fill="none" xmlns="http://www.w3.org/2000/svg"><path d="M12 7.259a1 1 0 01.469-.847l6.5-4.079a1 1 0 011.063 0l6.5 4.079a1 1 0 01.468.847V17a1 1 0 01-1 1H13a1 1 0 01-1-1V7.259z" fill="url(#paint0_linear)" fill-opacity=".6"/><path d="M4 23.313c0-3.546 4.332-4.99 6.26-5.445.04-.01.1-.013.1-.055v-.438c0-.188-.06-.396-.162-.563a5.499 5.499 0 01-.734-1.52.875.875 0 00-.184-.334c-.428-.5-.611-1.187-.734-1.604-.203-.684-.385-1.7.136-2.407a.127.127 0 00.012-.02.11.11 0 00.012-.063C8.637 10.312 7.793 4 13.725 4c6.436 0 5.621 6.208 5.548 6.844a.109.109 0 00.013.063.13.13 0 00.01.018c.523.729.34 1.724.137 2.408-.102.396-.306 1.104-.734 1.604a.822.822 0 00-.144.254c-.016.052-.027.106-.046.158-.18.512-.416.987-.707 1.443a1.064 1.064 0 00-.163.562v.438c0 .042.06.046.101.056 1.928.474 6.26 1.898 6.26 5.444a.695.695 0 01-.693.708H4.673A.686.686 0 014 23.312z" fill="url(#paint1_linear)"/><defs><linearGradient id="paint0_linear" x1="14.368" y1="20.756" x2="7.241" y2="10.074" gradientUnits="userSpaceOnUse"><stop stop-color="#505050"/><stop offset="1" stop-color="#333"/></linearGradient><linearGradient id="paint1_linear" x1="4" y1="24" x2="-5.462" y2="6.478" gradientUnits="userSpaceOnUse"><stop stop-color="#505050"/><stop offset="1" stop-color="#333"/></linearGradient></defs></svg>