<svg width="29" height="23" fill="none" xmlns="http://www.w3.org/2000/svg"><path opacity=".5" d="M0 7.052a1 1 0 011-1h14a1 1 0 011 1v14a1 1 0 01-1 1H1a1 1 0 01-1-1v-14z" fill="url(#paint0_linear)"/><path fill-rule="evenodd" clip-rule="evenodd" d="M21.523 8.679c0 3.083-2.563 5.679-5.845 5.679-3.281 0-5.844-2.596-5.844-5.679S12.397 3 15.679 3c3.281 0 5.844 2.596 5.844 5.679zm-.581 7.967c-.324-.357-.854-.427-1.286-.213a8.945 8.945 0 01-3.977.925c-4.885 0-8.845-3.886-8.845-8.679S10.794 0 15.679 0c4.884 0 8.844 3.886 8.844 8.679a8.52 8.52 0 01-1.39 4.674c-.27.412-.258.958.071 1.322l4.326 4.776a1.5 1.5 0 11-2.223 2.014l-4.365-4.819z" fill="url(#paint1_linear)"/><defs><linearGradient id="paint0_linear" x1="8" y1="6.052" x2="8" y2="22.052" gradientUnits="userSpaceOnUse"><stop stop-color="#F66200"/><stop offset="1" stop-color="#FF971C"/></linearGradient><linearGradient id="paint1_linear" x1="17.376" y1="0" x2="17.376" y2="21.958" gradientUnits="userSpaceOnUse"><stop stop-color="#F66200"/><stop offset="1" stop-color="#FF971C"/></linearGradient></defs></svg>