<svg width="35" height="34" viewBox="0 0 35 34" fill="none" xmlns="http://www.w3.org/2000/svg">
<path d="M3.37906 24.6258C3.53166 24.2476 3.89861 24 4.30641 24H18.6936C19.1014 24 19.4683 24.2476 19.6209 24.6258L22.4455 31.6258C22.7107 32.2831 22.2269 33 21.5182 33H1.48185C0.773095 33 0.289287 32.2831 0.554499 31.6258L3.37906 24.6258Z" fill="url(#paint0_linear)" fill-opacity="0.6"/>
<path d="M11.5 8C7.36053 8 4 11.3239 4 15.4182C4 19.8363 8.91223 25.9989 10.7858 28.1886C11.1652 28.6321 11.8348 28.6321 12.2142 28.1886C14.0878 25.9989 19 19.8363 19 15.4182C19 11.3239 15.6395 8 11.5 8ZM11.5 18.6761C9.67507 18.6761 8.20623 17.2233 8.20623 15.4182C8.20623 13.6132 9.67507 12.1604 11.5 12.1604C13.3249 12.1604 14.7938 13.6132 14.7938 15.4182C14.7938 17.2233 13.3027 18.6761 11.5 18.6761Z" fill="url(#paint1_linear)"/>
<g filter="url(#filter0_d)">
<circle cx="21.5" cy="9.5" r="7.5" fill="#2E61E5"/>
<circle cx="21.5" cy="9.5" r="7.5" fill="#2459E2"/>
</g>
<path d="M18.3672 8.25781C18.3672 8.24609 18.3672 8.21875 18.3672 8.19922C18.3672 7.77344 18.6797 7.41016 19.1758 7.41016C19.6289 7.41016 19.9648 7.70312 19.9648 8.15625C19.9648 8.55859 19.7188 8.875 19.3711 9.24219L17.4336 11.3438V12H21.1055V11.1406H18.8711V11.1094L20.0742 9.75781C20.6875 9.10156 21.0117 8.67969 21.0117 8.05859C21.0117 7.1875 20.2969 6.56641 19.2227 6.56641C18.0859 6.56641 17.3672 7.30859 17.3672 8.20703V8.25781H18.3672ZM23.7461 11.3398C23.168 11.3398 22.7305 10.9883 22.7305 10.4648C22.7305 9.94141 23.168 9.58203 23.7461 9.58203C24.3203 9.58203 24.7617 9.94141 24.7617 10.4648C24.7617 10.9883 24.3203 11.3398 23.7461 11.3398ZM23.7461 8.86328C23.2617 8.86328 22.9023 8.54688 22.9023 8.09375C22.9023 7.64062 23.2617 7.33594 23.7461 7.33594C24.2305 7.33594 24.5898 7.64062 24.5898 8.09375C24.5898 8.54688 24.2305 8.86328 23.7461 8.86328ZM23.7344 12.1016C24.9844 12.1016 25.8086 11.457 25.8086 10.5312C25.8086 9.69141 25.1758 9.30078 24.6914 9.20312V9.17188C25.1328 9.03516 25.5977 8.67188 25.5977 7.97656C25.5977 7.16406 24.8594 6.56641 23.7461 6.56641C22.6328 6.56641 21.8945 7.16406 21.8945 7.97656C21.8945 8.66406 22.3438 9.03125 22.7969 9.17188V9.20312C22.3164 9.30078 21.6797 9.6875 21.6797 10.5352C21.6797 11.4609 22.4883 12.1016 23.7344 12.1016Z" fill="#D5D5D5"/>
<defs>
<filter id="filter0_d" x="8" y="0" width="27" height="27" filterUnits="userSpaceOnUse" color-interpolation-filters="sRGB">
<feFlood flood-opacity="0" result="BackgroundImageFix"/>
<feColorMatrix in="SourceAlpha" type="matrix" values="0 0 0 0 0 0 0 0 0 0 0 0 0 0 0 0 0 0 127 0"/>
<feOffset dy="4"/>
<feGaussianBlur stdDeviation="3"/>
<feColorMatrix type="matrix" values="0 0 0 0 0 0 0 0 0 0 0 0 0 0 0 0 0 0 0.25 0"/>
<feBlend mode="normal" in2="BackgroundImageFix" result="effect1_dropShadow"/>
<feBlend mode="normal" in="SourceGraphic" in2="effect1_dropShadow" result="shape"/>
</filter>
<linearGradient id="paint0_linear" x1="3.63158" y1="34.956" x2="0.542632" y2="24.954" gradientUnits="userSpaceOnUse">
<stop stop-color="#505050"/>
<stop offset="1" stop-color="#333333"/>
</linearGradient>
<linearGradient id="paint1_linear" x1="4" y1="29" x2="-7.43149" y2="13.8791" gradientUnits="userSpaceOnUse">
<stop stop-color="#505050"/>
<stop offset="1" stop-color="#333333"/>
</linearGradient>
</defs>
</svg>
