<svg width="27" height="26" viewBox="0 0 27 26" fill="none" xmlns="http://www.w3.org/2000/svg">
<path d="M12 7.25898C12 6.91482 12.177 6.59484 12.4685 6.41192L18.9685 2.33348C19.2935 2.12957 19.7065 2.12957 20.0315 2.33348L26.5315 6.41192C26.823 6.59484 27 6.91482 27 7.25898V17C27 17.5523 26.5523 18 26 18H15.9706H13C12.4477 18 12 17.5523 12 17V15.6223V7.25898Z" fill="url(#paint0_linear)" fill-opacity="0.6"/>
<path d="M4 23.3125C4 19.7668 8.33169 18.3221 10.2596 17.8683C10.3009 17.8586 10.3609 17.8549 10.3609 17.8125V17.375C10.3609 17.1875 10.2997 16.9792 10.1978 16.8125C9.87156 16.3333 9.62691 15.8333 9.46381 15.2917C9.42304 15.1667 9.36188 15.0417 9.28033 14.9583C8.85219 14.4583 8.66871 13.7708 8.54638 13.3542C8.34341 12.6697 8.16065 11.6549 8.68209 10.9469C8.6867 10.9407 8.69081 10.934 8.69423 10.927C8.70421 10.9066 8.70853 10.886 8.70573 10.8635C8.63714 10.3121 7.79327 4 13.7248 4C20.1611 4 19.3463 10.2082 19.2735 10.8437C19.2709 10.8668 19.2755 10.886 19.2857 10.9069C19.2889 10.9134 19.2927 10.9197 19.2969 10.9255C19.8191 11.6539 19.6363 12.6486 19.4332 13.3333C19.3313 13.7292 19.1274 14.4375 18.6993 14.9375C18.6358 15.0186 18.5847 15.0997 18.5555 15.1905C18.5387 15.2429 18.5275 15.2971 18.5092 15.349C18.3289 15.8607 18.0933 16.3356 17.8022 16.7917C17.7003 16.9583 17.6391 17.1458 17.6391 17.3542V17.7917C17.6391 17.8341 17.6991 17.8379 17.7403 17.848C19.6681 18.3216 24 19.7459 24 23.2917C24 23.6875 23.6942 24 23.3068 24H4.67278C4.30581 24 4 23.6875 4 23.3125Z" fill="url(#paint1_linear)"/>
<defs>
<linearGradient id="paint0_linear" x1="14.3684" y1="20.756" x2="7.2413" y2="10.0743" gradientUnits="userSpaceOnUse">
<stop stop-color="#505050"/>
<stop offset="1" stop-color="#333333"/>
</linearGradient>
<linearGradient id="paint1_linear" x1="4" y1="24" x2="-5.462" y2="6.47796" gradientUnits="userSpaceOnUse">
<stop stop-color="#505050"/>
<stop offset="1" stop-color="#333333"/>
</linearGradient>
</defs>
</svg>
