<svg width="29" height="23" viewBox="0 0 29 23" fill="none" xmlns="http://www.w3.org/2000/svg">
<path opacity="0.5" d="M0 7.05176C0 6.49947 0.447715 6.05176 1 6.05176H15C15.5523 6.05176 16 6.49947 16 7.05176V21.0518C16 21.604 15.5523 22.0518 15 22.0518H4.23529H1C0.447716 22.0518 0 21.604 0 21.0518V19.0518V7.05176Z" fill="url(#paint0_linear)"/>
<path fill-rule="evenodd" clip-rule="evenodd" d="M21.5231 8.67898C21.5231 11.7622 18.9601 14.358 15.6785 14.358C12.397 14.358 9.83398 11.7622 9.83398 8.67898C9.83398 5.59576 12.397 3 15.6785 3C18.9601 3 21.5231 5.59576 21.5231 8.67898ZM20.9419 16.6463C20.6182 16.2889 20.088 16.2191 19.6558 16.433C18.4602 17.0247 17.109 17.358 15.6785 17.358C10.7938 17.358 6.83398 13.4723 6.83398 8.67898C6.83398 3.88571 10.7938 0 15.6785 0C20.5632 0 24.5231 3.88571 24.5231 8.67898C24.5231 10.4 24.0126 12.004 23.1321 13.3531C22.8636 13.7646 22.8745 14.3112 23.2043 14.6753L27.53 19.4506C28.0862 20.0646 28.0393 21.0132 27.4253 21.5693C26.8113 22.1255 25.8627 22.0786 25.3066 21.4647L20.9419 16.6463Z" fill="url(#paint1_linear)"/>
<defs>
<linearGradient id="paint0_linear" x1="8" y1="6.05176" x2="8" y2="22.0518" gradientUnits="userSpaceOnUse">
<stop stop-color="#F66200"/>
<stop offset="1" stop-color="#FF971C"/>
</linearGradient>
<linearGradient id="paint1_linear" x1="17.3761" y1="0" x2="17.3761" y2="21.9576" gradientUnits="userSpaceOnUse">
<stop stop-color="#F66200"/>
<stop offset="1" stop-color="#FF971C"/>
</linearGradient>
</defs>
</svg>
